<?xml version="1.0" standalone="no"?>
<!DOCTYPE svg PUBLIC "-//W3C//DTD SVG 20010904//EN"
 "http://www.w3.org/TR/2001/REC-SVG-20010904/DTD/svg10.dtd">
<svg version="1.0" xmlns="http://www.w3.org/2000/svg"
 width="851.000000pt" height="451.000000pt" viewBox="0 0 851.000000 451.000000"
 preserveAspectRatio="xMidYMid meet">

<g transform="translate(0.000000,451.000000) scale(0.100000,-0.100000)"
fill="#000000" stroke="none">
<path d="M0 2255 l0 -2255 4255 0 4255 0 0 2255 0 2255 -4255 0 -4255 0 0
-2255z m1383 658 c-13 -2 -33 -2 -45 0 -13 2 -3 4 22 4 25 0 35 -2 23 -4z
m115 -7 c-31 -6 -60 -14 -64 -18 -4 -5 -18 -8 -32 -8 -27 0 -142 -58 -142 -71
0 -5 9 -9 20 -9 11 0 47 -9 80 -21 59 -20 60 -20 87 -1 16 11 45 25 65 33 44
15 40 23 -28 49 -27 10 -42 19 -34 19 8 1 38 -10 66 -23 46 -21 60 -23 125
-17 71 7 73 8 46 21 -20 10 -24 16 -15 23 9 6 6 7 -9 4 -13 -3 -42 1 -65 9
l-43 14 57 -5 c80 -7 173 -43 274 -106 90 -57 214 -163 214 -182 -1 -7 -16 5
-34 26 -18 20 -36 37 -40 37 -12 0 -6 -17 16 -40 12 -13 23 -31 24 -39 1 -9 9
-36 18 -60 9 -24 16 -51 16 -60 0 -9 23 -39 50 -66 57 -56 62 -48 29 42 -13
33 -40 77 -66 104 -38 41 -42 48 -23 46 16 -1 36 -24 71 -82 27 -44 47 -86 44
-93 -2 -7 -1 -11 4 -7 9 5 28 -40 50 -115 13 -48 31 -205 29 -260 -1 -42 -2
-43 -6 -10 -4 30 -6 32 -11 12 -3 -13 -6 19 -6 70 0 71 -5 102 -20 133 l-19
40 -6 -50 c-7 -49 -7 -48 -8 21 -2 69 -3 71 -50 124 l-49 54 -7 -87 -7 -88 40
-46 c40 -44 91 -139 91 -165 0 -7 -8 5 -18 26 l-18 39 -18 -42 c-11 -23 -29
-55 -42 -72 -21 -28 -21 -33 -8 -76 8 -25 14 -58 13 -72 0 -14 -6 0 -13 31 -7
32 -15 61 -19 64 -3 4 -23 -8 -43 -25 -20 -18 -48 -38 -61 -44 -20 -9 -24 -16
-19 -38 3 -14 8 -49 12 -78 4 -28 9 -51 12 -51 3 0 26 14 52 30 95 61 185 189
177 253 -2 18 -2 23 0 13 4 -15 7 -16 13 -6 5 8 7 -14 4 -51 -2 -45 -1 -57 5
-39 5 14 10 39 11 55 2 23 4 25 7 9 9 -48 -57 -238 -119 -341 -36 -60 -137
-169 -208 -225 -57 -46 -144 -88 -245 -121 -68 -23 -88 -25 -133 -18 -38 6
-70 4 -115 -7 -53 -13 -76 -13 -152 -2 -65 9 -84 15 -69 21 13 4 42 1 74 -8
54 -16 160 -11 160 8 0 5 15 9 33 9 33 0 137 53 137 70 0 6 7 10 14 10 15 0
106 104 106 121 0 5 -15 9 -32 10 -18 0 -42 4 -53 9 -14 6 -6 7 25 4 25 -3 51
-7 57 -9 7 -2 17 4 22 13 9 15 10 15 11 1 0 -13 9 -16 48 -13 47 3 47 3 -8 -6
-39 -7 -59 -17 -70 -32 -8 -13 -30 -39 -48 -60 l-33 -37 53 -4 53 -3 -60 -2
c-59 -2 -70 -7 -161 -70 -35 -24 118 -7 168 19 74 38 91 51 76 60 -9 6 -7 9 9
9 12 0 34 12 48 28 25 25 75 96 75 105 0 3 -12 3 -27 1 -26 -4 -26 -3 3 6 17
5 36 20 43 32 6 13 9 15 7 6 -7 -24 1 -23 60 12 55 31 94 72 94 99 0 12 2 13
9 3 6 -10 14 -4 33 20 44 58 68 116 74 180 l6 63 -27 -45 c-15 -25 -34 -53
-43 -63 -9 -10 -22 -46 -29 -80 -11 -54 -12 -56 -8 -14 3 27 1 47 -3 45 -4 -2
-35 -21 -69 -43 -52 -33 -63 -46 -68 -75 -4 -19 -11 -46 -15 -60 -7 -19 -8
-16 -4 15 3 22 8 47 10 57 4 15 1 15 -42 2 -26 -8 -59 -14 -74 -14 -14 0 -30
-4 -36 -9 -5 -5 -18 -5 -29 -1 -17 7 -17 9 -2 9 14 1 17 12 19 64 l2 62 3 -61
4 -61 54 9 c30 4 66 13 81 18 26 10 26 12 20 71 -10 84 -14 92 -45 85 -25 -5
-25 -5 -3 6 12 6 22 16 22 23 0 13 -54 100 -68 109 -5 3 -42 -2 -81 -12 l-72
-17 25 -33 c13 -19 30 -47 36 -63 10 -23 19 -29 44 -30 30 -2 30 -2 4 -6 -17
-3 -28 -11 -29 -21 -1 -15 -2 -15 -6 1 -3 12 -14 17 -37 17 -19 0 -53 7 -76
15 -23 8 -44 15 -46 15 -1 0 2 -15 7 -32 5 -18 9 -54 9 -80 0 -47 0 -47 43
-58 58 -15 65 -18 42 -18 -11 0 -38 5 -60 11 -39 12 -39 13 -36 59 4 70 -14
123 -52 149 -17 12 -44 33 -58 46 l-27 25 4 -49 3 -48 -8 46 c-11 55 -39 119
-53 119 -7 0 -8 -17 -5 -45 4 -27 3 -45 -3 -45 -6 0 -10 21 -10 48 l-1 47 -19
-24 c-11 -13 -21 -37 -21 -55 -1 -17 -3 -23 -6 -14 -3 13 -17 3 -61 -41 -55
-56 -136 -101 -179 -101 -10 1 6 9 35 19 30 10 60 25 67 32 17 17 76 132 70
137 -2 2 -17 -4 -34 -12 -16 -9 -36 -16 -43 -16 -7 1 14 14 47 29 33 15 69 38
79 49 19 22 19 22 -3 22 -28 0 -75 -24 -124 -63 -29 -22 -35 -32 -25 -38 9 -6
7 -9 -8 -9 -22 0 -64 -51 -85 -105 -6 -16 -15 -66 -19 -110 l-7 -80 -2 67 -1
67 -32 4 c-32 4 -32 4 5 5 24 1 37 7 37 16 0 8 13 39 29 70 l30 56 -32 0 c-71
0 -168 37 -225 85 l-31 26 -15 -23 c-8 -13 -25 -45 -36 -71 -21 -47 -21 -49
-3 -62 44 -32 55 -45 20 -25 -39 23 -40 22 -50 -25 -3 -11 -3 -1 -1 21 3 32
-1 46 -18 60 -11 11 -34 36 -49 58 -19 25 -30 34 -33 25 -12 -38 -16 -41 -11
-8 4 24 -2 61 -17 104 -24 75 -30 71 -43 -29 -5 -48 -2 -71 17 -130 l23 -71 6
45 6 45 1 -56 c2 -48 7 -63 37 -102 41 -53 71 -74 78 -54 3 6 6 2 6 -10 1 -14
12 -28 31 -38 17 -9 30 -18 30 -21 0 -2 -14 2 -30 11 -23 12 -30 13 -31 3 0
-8 -3 -8 -6 2 -3 8 -28 39 -56 68 l-49 53 6 -37 c12 -62 52 -137 95 -179 22
-21 41 -37 41 -34 0 3 -7 27 -16 53 -9 26 -13 50 -10 53 3 4 6 1 6 -5 0 -6 9
-37 21 -68 20 -52 25 -58 83 -85 33 -16 55 -29 48 -29 -7 0 -27 7 -43 16 -51
26 -46 7 14 -51 52 -51 97 -77 156 -92 22 -5 18 2 -29 55 -30 34 -62 62 -70
62 -13 0 -13 2 -1 9 11 7 12 13 4 23 -6 7 -20 39 -31 72 -17 50 -25 61 -58 77
-22 11 -30 16 -19 13 53 -17 53 -17 58 13 4 28 4 28 6 -4 1 -29 5 -33 44 -42
l42 -11 -39 5 c-38 4 -38 4 -32 -26 3 -17 16 -52 29 -77 20 -40 28 -48 58 -51
l34 -4 -30 -7 -30 -7 57 -56 c32 -32 67 -57 78 -57 11 0 20 -4 20 -10 0 -5 12
-16 28 -24 15 -8 23 -15 19 -16 -4 0 -22 8 -40 17 -30 16 -117 44 -117 37 0
-2 17 -12 38 -23 20 -11 32 -20 26 -21 -15 0 -167 92 -230 141 -62 48 -103 96
-169 198 -89 140 -115 229 -121 416 -5 148 4 201 52 329 45 116 105 205 201
297 99 95 176 141 305 185 93 31 107 33 155 25 38 -8 63 -7 95 3 24 8 61 14
83 14 37 -1 36 -1 -17 -12z m3344 -468 l3 -403 50 -3 c50 -3 79 -17 69 -33 -3
-5 -65 -9 -139 -9 -74 0 -136 4 -139 9 -10 16 19 30 69 33 l50 3 0 385 0 385
-50 3 c-61 3 -78 9 -70 22 3 5 40 10 80 10 l75 0 2 -402z m358 342 c23 -23 24
-33 10 -61 -12 -22 -59 -26 -78 -7 -19 19 -14 55 10 72 29 20 34 20 58 -4z
m-2350 -189 c28 -11 71 -36 95 -55 24 -20 46 -36 49 -36 3 0 6 20 6 44 0 46
16 69 31 45 5 -8 9 -193 9 -411 l0 -397 58 -3 c43 -2 57 -7 57 -18 0 -13 -23
-15 -145 -15 -122 0 -145 2 -145 15 0 11 16 16 65 20 l65 5 0 100 0 100 -145
5 c-139 5 -148 6 -212 38 -106 52 -149 127 -150 262 -4 234 167 375 362 301z
m1540 -2 c108 -49 114 -66 120 -334 l5 -220 50 -3 c50 -3 79 -17 69 -33 -3 -5
-39 -9 -80 -9 l-74 0 0 43 c0 24 -3 46 -6 50 -4 3 -27 -11 -53 -33 -64 -54
-112 -72 -193 -72 -122 0 -199 58 -214 160 -12 83 50 166 145 192 20 5 98 10
174 10 159 0 158 -1 139 88 -21 98 -83 142 -199 142 -55 0 -80 -6 -131 -30
-72 -34 -82 -36 -82 -15 0 19 78 64 131 74 78 16 151 12 199 -10z m1342 11
c20 -6 60 -26 88 -45 29 -19 56 -35 61 -35 5 0 9 15 9 34 0 38 17 57 31 35 5
-8 8 -59 7 -114 -3 -86 -5 -100 -20 -103 -15 -3 -18 4 -18 36 0 34 -6 45 -48
84 -65 61 -122 81 -214 76 -127 -7 -190 -58 -174 -141 12 -63 65 -88 243 -117
199 -33 260 -76 250 -177 -10 -93 -100 -152 -235 -154 -86 -2 -138 13 -202 56
-29 19 -54 35 -56 35 -2 0 -4 -18 -4 -40 0 -34 -3 -40 -20 -40 -20 0 -21 5
-18 113 2 92 6 112 18 112 10 0 16 -13 18 -42 3 -35 11 -48 48 -83 62 -57 105
-73 194 -74 129 -2 220 52 220 128 0 74 -47 99 -258 135 -174 30 -237 76 -237
171 0 40 5 54 30 80 31 33 71 57 115 71 37 11 130 10 172 -1z m1430 0 c20 -6
60 -26 88 -45 29 -19 56 -35 60 -35 5 0 10 17 12 38 2 25 8 37 18 37 12 0 15
-19 15 -110 0 -97 -2 -110 -17 -113 -15 -3 -18 4 -18 36 0 32 -7 46 -42 80
-64 64 -99 77 -198 76 -100 -2 -161 -6 -156 -12 3 -2 -7 -20 -21 -40 -48 -70
-15 -143 76 -170 20 -6 95 -22 167 -35 72 -14 145 -32 163 -41 89 -46 94 -184
9 -240 -67 -44 -197 -61 -285 -37 -23 6 -64 27 -92 46 -28 19 -53 35 -56 35
-3 0 -5 -18 -5 -41 0 -33 -3 -40 -17 -37 -16 3 -18 16 -18 113 0 91 3 110 15
110 10 0 16 -13 18 -40 8 -103 174 -186 312 -156 108 23 150 61 150 134 0 66
-44 88 -238 122 -186 33 -247 72 -258 161 -6 49 19 93 75 130 64 42 163 56
243 34z m-3822 -230 c5 -214 6 -227 29 -266 33 -58 89 -88 166 -88 77 1 126
26 193 99 l52 57 0 194 0 194 -61 0 c-52 0 -60 2 -57 18 3 14 15 17 78 17 l75
0 3 -282 2 -282 58 -3 c45 -2 58 -7 60 -20 3 -16 -6 -18 -77 -18 l-81 0 0 50
c0 28 -3 50 -6 50 -3 0 -24 -15 -46 -34 -63 -54 -123 -78 -194 -78 -103 1
-169 40 -208 122 -18 40 -21 68 -24 253 l-4 207 -53 0 c-30 0 -57 5 -60 10
-14 23 9 31 78 28 l72 -3 5 -225z m1852 -52 l3 -283 50 -3 c50 -3 79 -17 69
-33 -3 -5 -65 -9 -139 -9 -74 0 -136 4 -139 9 -10 16 19 30 69 33 l50 3 0 260
0 260 -55 3 c-30 2 -59 7 -64 12 -19 19 9 30 79 30 l75 0 2 -282z m1088 262
c0 -17 -7 -20 -50 -20 -29 0 -50 -5 -50 -11 0 -9 166 -363 217 -462 l19 -39
97 249 c53 138 97 252 97 256 0 3 -24 7 -52 9 -39 2 -53 7 -53 18 0 13 21 15
130 15 109 0 130 -2 130 -15 0 -11 -14 -16 -52 -18 -37 -2 -56 -8 -62 -20 -5
-9 -64 -159 -131 -332 -67 -173 -131 -332 -141 -352 -49 -96 -116 -137 -202
-124 -50 8 -127 57 -127 81 0 20 34 19 51 -1 26 -31 71 -46 123 -41 43 4 55
10 83 42 18 21 44 68 59 106 32 81 45 38 -118 384 l-117 250 -53 3 c-49 3 -73
16 -62 34 3 4 63 8 135 8 122 0 129 -1 129 -20z m-4073 -412 c-3 -8 -6 -5 -6
6 -1 11 2 17 5 13 3 -3 4 -12 1 -19z m-1213 -263 c-14 -28 -23 -60 -21 -72 2
-13 0 -23 -4 -23 -5 0 -10 -12 -10 -27 l-2 -28 -4 30 c-3 16 -12 35 -21 42
-15 11 -14 11 6 6 15 -3 22 -1 22 8 0 18 49 123 55 117 2 -2 -7 -26 -21 -53z
m435 -52 c-23 -65 -62 -116 -119 -156 -23 -16 -23 -19 -11 -54 8 -21 24 -53
37 -72 l23 -34 55 53 55 52 -29 52 c-17 29 -30 59 -30 67 0 8 11 -9 24 -37 13
-28 28 -54 34 -58 13 -8 52 84 52 123 0 16 -9 45 -19 63 -10 18 -22 44 -25 58
-4 14 5 1 20 -29 24 -47 29 -52 36 -35 7 15 8 15 4 -6 -4 -20 5 -35 50 -78 56
-55 43 -57 -15 -3 -18 17 -34 31 -36 31 -1 0 -5 -13 -8 -30 -4 -16 -16 -49
-27 -72 -11 -23 -20 -43 -20 -44 0 -6 109 -84 118 -84 6 0 18 12 26 28 8 15
15 22 16 17 0 -6 -7 -21 -16 -33 -8 -12 -13 -22 -9 -22 3 0 -22 -28 -54 -62
-66 -70 -66 -69 21 -92 29 -8 43 -15 31 -15 -13 -1 -45 7 -72 18 l-50 19 -57
-29 c-31 -16 -64 -29 -72 -29 -26 0 -1 -19 54 -40 27 -10 42 -19 34 -19 -8 -1
-38 10 -66 23 -35 16 -65 23 -100 21 -28 -1 -33 0 -11 2 20 2 37 6 37 8 0 11
-115 111 -133 117 -15 4 -17 6 -5 7 14 1 12 9 -13 54 -16 28 -29 59 -29 67 0
8 11 -9 25 -39 31 -66 73 -120 131 -167 l43 -36 48 16 c26 9 59 25 73 36 24
20 25 21 5 32 -11 6 -37 28 -59 48 l-40 37 -53 -23 c-30 -13 -61 -24 -71 -23
-9 0 8 9 38 20 30 10 58 23 62 27 5 5 -4 33 -20 64 -16 30 -31 60 -33 66 -3 7
-22 5 -59 -8 -69 -23 -94 -27 -100 -16 -3 4 13 9 35 11 23 2 58 10 78 19 l37
15 2 78 2 78 5 -75 6 -75 57 56 56 57 -3 58 c-2 53 -2 54 4 14 l7 -45 12 28
c6 15 15 39 18 53 4 14 9 23 11 20 3 -3 -5 -36 -18 -73z m478 -9 c-3 -3 -12
-4 -19 -1 -8 3 -5 6 6 6 11 1 17 -2 13 -5z m-874 -41 c-7 -2 -21 -2 -30 0 -10
3 -4 5 12 5 17 0 24 -2 18 -5z m617 -170 c-11 -17 -11 -17 -6 0 3 10 7 26 7
35 1 15 2 15 6 0 2 -10 -1 -25 -7 -35z m155 -54 c-8 -19 -13 -25 -9 -14 3 11
8 34 12 50 3 17 8 23 10 14 1 -9 -4 -32 -13 -50z m1615 -129 c0 -91 -3 -110
-15 -110 -12 0 -15 19 -15 110 0 91 3 110 15 110 12 0 15 -19 15 -110z m139
18 l51 -93 0 93 c0 54 4 92 10 92 6 0 10 -43 10 -110 0 -86 -3 -110 -14 -110
-7 0 -35 39 -62 87 l-49 88 -3 -88 c-4 -127 -22 -108 -22 23 0 140 11 143 79
18z m271 77 c0 -10 -10 -15 -30 -15 l-30 0 0 -95 c0 -78 -3 -95 -15 -95 -12 0
-15 17 -15 94 l0 95 -32 3 c-17 2 -33 9 -36 16 -3 9 17 12 77 12 65 0 81 -3
81 -15z m170 0 c0 -11 -12 -15 -50 -15 -49 0 -50 -1 -50 -29 0 -28 3 -30 43
-33 23 -2 42 -7 42 -13 0 -5 -19 -11 -42 -13 -43 -3 -43 -3 -43 -43 l0 -39 50
0 c28 0 50 -4 50 -10 0 -6 -28 -10 -65 -10 l-65 0 0 110 0 110 65 0 c51 0 65
-3 65 -15z m164 4 c43 -20 43 -83 0 -107 -15 -8 -13 -14 11 -56 21 -37 24 -46
11 -46 -8 0 -27 20 -42 45 -16 28 -33 45 -45 45 -16 0 -19 -7 -19 -45 0 -33
-4 -45 -15 -45 -12 0 -15 19 -15 110 l0 110 45 0 c24 0 55 -5 69 -11z m103
-79 c15 -50 30 -87 33 -83 4 5 17 45 30 91 14 52 28 82 37 82 16 0 12 -17 -27
-135 -37 -112 -50 -110 -90 12 -18 54 -35 104 -38 111 -2 6 3 12 12 12 11 0
23 -26 43 -90z m173 -20 c0 -91 -3 -110 -15 -110 -12 0 -15 19 -15 110 0 91 3
110 15 110 12 0 15 -19 15 -110z m188 98 c-3 -7 -25 -14 -51 -16 -45 -3 -47
-5 -47 -33 0 -27 2 -29 40 -29 29 0 40 -4 40 -15 0 -11 -11 -15 -40 -15 l-40
0 0 -40 0 -40 50 0 c28 0 50 -4 50 -10 0 -6 -28 -10 -65 -10 l-65 0 0 110 0
110 66 0 c48 0 65 -3 62 -12z m71 -65 c7 -43 16 -82 19 -88 3 -5 15 29 27 75
27 112 42 112 70 0 12 -46 23 -80 27 -75 3 6 11 45 18 88 9 52 17 77 26 77 18
0 18 -1 -7 -120 -18 -81 -25 -100 -39 -100 -14 0 -22 17 -35 73 -10 39 -21 76
-25 80 -3 4 -15 -29 -25 -73 -30 -132 -59 -100 -92 102 -4 29 -2 38 9 38 10 0
18 -23 27 -77z m425 66 c22 -11 36 -35 36 -66 0 -27 -40 -53 -80 -53 l-40 0 0
-45 c0 -33 -4 -45 -15 -45 -12 0 -15 19 -15 110 l0 110 45 0 c24 0 55 -5 69
-11z m106 -89 l0 -100 50 0 c28 0 50 -4 50 -10 0 -6 -28 -10 -65 -10 l-65 0 0
110 c0 91 3 110 15 110 12 0 15 -18 15 -100z m251 -12 c34 -95 36 -108 21
-108 -11 0 -21 12 -27 33 -9 29 -14 32 -50 32 -36 0 -40 -3 -49 -32 -5 -18
-15 -33 -24 -33 -17 0 -14 16 29 136 22 61 36 84 46 82 10 -2 31 -45 54 -110z
m197 100 c-3 -7 -19 -14 -36 -16 l-32 -3 0 -95 c0 -77 -3 -94 -15 -94 -12 0
-15 17 -15 94 l0 95 -32 3 c-17 2 -33 9 -36 16 -3 9 18 12 83 12 65 0 86 -3
83 -12z m162 -3 c0 -11 -12 -15 -50 -15 l-50 0 0 -35 c0 -35 0 -35 45 -35 25
0 45 -4 45 -10 0 -5 -20 -10 -45 -10 l-45 0 0 -50 c0 -38 -4 -50 -15 -50 -12
0 -15 19 -15 110 l0 110 65 0 c51 0 65 -3 65 -15z m184 -16 c57 -67 18 -189
-61 -191 -71 -2 -115 69 -93 152 13 48 42 70 91 70 29 0 43 -7 63 -31z m194
15 c30 -21 30 -77 1 -98 l-21 -14 28 -47 c24 -42 25 -47 8 -43 -10 2 -29 22
-42 46 -15 27 -30 42 -43 42 -16 0 -19 -7 -19 -45 0 -33 -4 -45 -15 -45 -12 0
-15 19 -15 110 l0 110 48 0 c27 0 57 -7 70 -16z m128 -36 c40 -122 38 -121 69
-29 21 64 31 81 46 81 18 0 19 -8 19 -110 0 -90 -3 -110 -15 -110 -11 0 -15
18 -17 83 l-3 82 -25 -70 c-14 -38 -29 -69 -35 -69 -5 1 -22 32 -37 70 l-27
69 0 -82 c-1 -67 -4 -83 -16 -83 -12 0 -15 19 -15 110 0 102 1 110 19 110 14
0 24 -13 37 -52z m-3036 -63 c0 -13 -45 -15 -345 -15 -300 0 -345 2 -345 15 0
13 45 15 345 15 300 0 345 -2 345 -15z m3928 3 c-4 -10 -80 -13 -338 -13 -258
0 -334 3 -337 13 -4 9 68 12 337 12 269 0 341 -3 338 -12z m-6043 -148 c13 -6
15 -9 5 -9 -8 0 -22 4 -30 9 -18 12 -2 12 25 0z m383 -37 c-10 -2 -28 -2 -40
0 -13 2 -5 4 17 4 22 1 32 -1 23 -4z"/>
<path d="M1231 2879 c-24 -4 -59 -18 -78 -29 -20 -11 -38 -19 -40 -16 -6 6
-109 -45 -138 -68 -14 -11 -4 -9 30 5 28 12 54 25 58 29 4 4 20 5 35 2 25 -5
25 -6 -13 -16 -29 -9 -49 -24 -77 -61 -48 -63 -49 -77 -6 -64 18 5 49 8 68 8
26 -1 21 -4 -22 -10 -32 -4 -67 -13 -78 -19 -20 -10 -50 -93 -50 -137 0 -20 3
-21 26 -13 14 6 31 10 37 9 7 0 -4 -6 -23 -13 l-35 -13 1 -71 c0 -40 3 -74 5
-77 3 -2 38 3 77 13 65 15 72 19 73 42 l1 25 7 -25 c5 -19 16 -27 41 -31 l35
-6 -33 -2 -32 -1 24 -47 c33 -65 58 -86 124 -99 31 -7 66 -16 77 -20 19 -7 19
-6 -1 17 -12 13 -33 45 -48 70 -14 25 -36 51 -49 58 -22 11 -22 11 0 6 20 -6
22 -3 18 32 l-5 38 11 -42 c7 -30 20 -49 42 -64 18 -12 47 -36 64 -52 l33 -31
-10 35 c-6 18 -10 55 -10 80 0 43 -4 50 -50 93 -59 55 -77 58 -83 14 -3 -29
-4 -28 -5 9 -1 23 -8 44 -14 46 -8 3 -6 6 5 6 9 1 17 9 17 19 0 9 11 40 24 68
l24 52 -21 11 c-22 11 -22 11 1 5 19 -5 33 5 77 50 61 64 61 64 -41 91 -56 15
-58 14 -82 -8 -14 -12 -38 -40 -54 -62 l-30 -40 34 -6 33 -6 -37 -2 c-33 -1
-40 -5 -54 -38 -9 -21 -22 -78 -29 -128 -10 -72 -13 -80 -14 -42 l-1 47 -37 1
-38 2 39 6 c37 6 39 8 53 60 16 65 54 137 100 191 l34 39 -43 4 c-38 3 -36 4
14 5 31 1 60 7 63 12 4 6 30 24 58 40 l52 30 -45 -1 c-25 -1 -65 -5 -89 -10z
m-126 -59 c-3 -5 -12 -10 -18 -10 -7 0 -6 4 3 10 19 12 23 12 15 0z m132 -166
c-3 -3 -12 -4 -19 -1 -8 3 -5 6 6 6 11 1 17 -2 13 -5z m-52 -154 c13 -6 2 -7
-30 -3 -27 3 -52 7 -54 9 -9 8 65 2 84 -6z m12 -166 c-3 -3 -12 -4 -19 -1 -8
3 -5 6 6 6 11 1 17 -2 13 -5z"/>
<path d="M1705 2863 c37 -20 123 -47 110 -34 -12 12 -111 51 -128 51 -7 -1 2
-8 18 -17z"/>
<path d="M1595 2820 c-3 -5 -2 -10 4 -10 5 0 33 -23 60 -50 l51 -51 77 3 78 3
-57 58 -58 57 -74 0 c-41 0 -78 -4 -81 -10z"/>
<path d="M1516 2799 c-27 -11 -57 -26 -68 -33 -17 -13 -16 -15 19 -42 21 -16
48 -39 60 -52 21 -22 23 -23 53 -7 18 9 34 14 36 12 3 -2 -9 -10 -26 -17 -17
-7 -29 -15 -28 -19 2 -3 17 -33 33 -66 16 -33 31 -62 32 -64 2 -3 19 3 38 12
20 9 43 17 53 16 9 0 -6 -9 -34 -20 l-50 -19 0 -78 1 -78 48 18 c26 10 55 18
65 17 9 0 -1 -6 -23 -13 -77 -24 -95 -40 -129 -110 -23 -47 -28 -65 -17 -61 8
3 38 13 65 22 65 21 72 27 103 87 21 40 27 70 31 144 5 91 5 92 -19 93 -18 1
-19 3 -6 6 21 5 17 22 -19 96 -20 38 -30 47 -52 48 -17 1 -20 3 -9 6 26 7 21
16 -27 61 -65 60 -74 63 -130 41z"/>
<path d="M1831 2763 c42 -45 67 -62 116 -79 51 -18 60 -19 56 -6 -5 11 -3 13
8 7 8 -5 5 1 -5 13 -11 12 -21 20 -24 17 -3 -2 -25 13 -49 35 -38 33 -115 70
-146 70 -6 0 14 -26 44 -57z"/>
<path d="M955 2731 c-51 -29 -125 -101 -125 -122 0 -5 -4 -8 -9 -4 -10 5 -41
-32 -77 -90 l-18 -30 28 25 c16 14 35 40 42 58 14 32 32 47 20 16 -5 -13 1
-11 26 5 18 12 49 30 68 39 19 9 37 21 38 25 2 4 19 30 37 57 19 28 31 50 27
50 -4 0 -30 -13 -57 -29z"/>
<path d="M1354 2688 l-48 -51 24 -16 c14 -9 41 -30 60 -47 l35 -32 57 53 56
53 -31 29 c-40 37 -78 63 -93 63 -6 0 -33 -23 -60 -52z"/>
<path d="M1720 2698 c0 -2 14 -30 30 -62 17 -32 30 -65 30 -72 0 -13 46 -18
153 -17 9 0 17 -4 17 -9 0 -4 6 -8 13 -8 6 0 38 -14 71 -30 l58 -30 -6 30 c-3
17 -15 53 -27 81 -18 41 -30 54 -68 73 -25 13 -58 26 -73 30 l-27 6 24 -52
c14 -29 25 -60 25 -68 0 -8 -11 11 -24 43 -35 85 -38 87 -122 87 -41 0 -74 -1
-74 -2z"/>
<path d="M894 2606 c-99 -56 -124 -93 -124 -186 l0 -31 43 29 c23 16 54 37 70
46 17 10 27 25 27 40 0 12 7 45 15 71 8 27 13 50 12 52 -2 1 -21 -8 -43 -21z"/>
<path d="M1497 2598 c-59 -48 -61 -58 -27 -124 16 -33 30 -66 30 -74 0 -8 21
9 46 38 25 28 50 52 56 52 6 0 -12 -24 -41 -54 l-51 -55 0 -78 0 -78 56 56
c55 55 56 58 58 115 0 33 -2 77 -7 99 -8 41 -54 126 -72 131 -5 2 -27 -11 -48
-28z"/>
<path d="M1291 2607 c-14 -17 -41 -94 -41 -116 0 -9 18 -26 40 -39 21 -12 47
-33 57 -46 l18 -24 21 62 c11 33 24 69 28 78 6 12 -5 27 -44 57 -57 45 -63 47
-79 28z"/>
<path d="M1790 2466 c0 -72 1 -76 23 -77 22 -1 22 -1 -2 -8 -16 -4 -28 -19
-37 -45 -8 -20 -22 -50 -33 -64 l-20 -27 57 -11 57 -12 -60 1 c-81 0 -128 -9
-189 -38 -53 -25 -91 -65 -61 -65 22 0 87 34 124 66 18 14 34 24 37 21 6 -5
-75 -67 -90 -68 -6 0 24 -7 68 -15 78 -14 79 -14 120 10 49 28 80 61 72 74 -3
5 3 12 14 15 19 5 47 55 65 115 5 17 2 22 -12 23 -14 0 -15 2 -3 6 8 3 18 11
22 17 5 7 8 4 8 -6 0 -10 4 -18 8 -18 5 0 34 -16 67 -35 32 -20 60 -33 63 -31
2 3 5 40 6 83 l1 78 -60 32 c-33 18 -64 33 -70 33 -6 0 -9 -26 -9 -62 l2 -63
-7 62 c-3 34 -10 65 -14 69 -4 5 -39 10 -78 12 l-69 4 0 -76z m103 -93 c-7 -2
-19 -2 -25 0 -7 3 -2 5 12 5 14 0 19 -2 13 -5z"/>
<path d="M1408 2477 c-33 -68 -32 -93 3 -171 l33 -73 23 66 c14 36 24 74 24
84 0 24 -48 127 -59 127 -4 0 -15 -15 -24 -33z"/>
<path d="M750 2485 c-7 -8 -16 -13 -20 -10 -4 3 -7 -1 -7 -8 1 -6 -11 -37 -25
-67 -22 -47 -50 -175 -35 -160 3 3 25 35 50 72 36 55 45 77 50 127 3 34 4 61
2 61 -1 0 -8 -7 -15 -15z"/>
<path d="M849 2432 c-71 -46 -83 -64 -76 -119 3 -27 11 -61 17 -77 l11 -29 42
40 c23 22 52 46 64 52 19 10 20 15 12 43 -5 18 -9 52 -9 75 0 24 -4 43 -8 43
-4 0 -28 -13 -53 -28z"/>
<path d="M2210 2396 c0 -8 -3 -23 -6 -33 -5 -15 -4 -15 5 -3 9 12 11 11 11
-10 1 -23 39 -106 40 -86 0 14 -40 146 -45 146 -3 0 -5 -6 -5 -14z"/>
<path d="M729 2320 c-62 -83 -70 -120 -43 -211 12 -40 19 -50 26 -39 4 8 24
41 43 74 l35 58 -15 52 c-7 28 -15 62 -17 76 -3 25 -3 25 -29 -10z"/>
<path d="M1478 2305 c-24 -71 -31 -111 -23 -135 6 -20 7 -21 21 -3 7 10 14 26
14 35 0 9 3 18 8 20 4 2 5 32 2 68 l-5 65 -17 -50z"/>
<path d="M1943 2333 c-5 -16 -41 -96 -51 -115 -2 -4 12 -14 30 -24 18 -9 45
-28 60 -42 15 -14 30 -23 33 -21 3 3 19 30 36 60 16 30 27 43 24 29 -4 -14
-18 -42 -32 -64 l-25 -38 20 -22 c11 -11 32 -40 45 -64 l25 -44 21 30 c12 17
30 50 40 73 18 38 18 46 5 71 -21 41 -75 99 -85 92 -5 -3 -9 1 -9 10 0 13
-103 86 -123 86 -4 0 -10 -8 -14 -17z"/>
<path d="M990 2323 c-25 -9 -46 -17 -48 -18 -6 -6 46 -100 65 -117 13 -12 23
-14 33 -8 8 5 22 10 30 9 8 0 2 -5 -13 -12 l-29 -12 24 -21 c13 -11 34 -28 48
-37 13 -10 20 -17 14 -17 -6 0 -32 16 -57 35 l-45 34 -38 -28 c-22 -15 -48
-38 -58 -50 -20 -21 -20 -22 15 -51 19 -16 46 -34 61 -41 25 -10 31 -8 63 20
19 17 49 38 67 47 21 11 27 18 19 24 -8 4 -1 7 16 7 15 0 56 7 90 14 l62 15
-46 24 c-60 32 -126 98 -153 155 -25 51 -41 55 -120 28z m148 -130 c-10 -2
-26 -2 -35 0 -10 3 -2 5 17 5 19 0 27 -2 18 -5z"/>
<path d="M1381 2309 c-1 -47 25 -133 46 -150 15 -13 16 -10 11 32 -3 25 -17
70 -31 100 l-25 54 -1 -36z"/>
<path d="M875 2262 c-26 -20 -53 -44 -58 -53 -11 -18 9 -66 48 -113 l24 -30
28 30 c15 16 41 39 56 50 l29 20 -31 49 c-17 27 -31 55 -31 61 0 26 -17 22
-65 -14z"/>
<path d="M1559 2263 c-47 -50 -69 -83 -69 -105 0 -31 41 3 79 66 42 69 37 88
-10 39z"/>
<path d="M1280 2274 c0 -25 98 -134 121 -134 20 0 6 25 -48 81 -50 53 -73 70
-73 53z"/>
<path d="M636 2218 c-5 -31 -6 -63 -3 -70 6 -18 20 73 15 103 -3 15 -7 3 -12
-33z"/>
<path d="M1849 2174 c-13 -14 -39 -35 -57 -46 l-33 -21 43 -24 c24 -13 53 -34
65 -45 12 -12 27 -17 34 -13 8 5 10 4 5 -4 -4 -6 -3 -18 3 -25 6 -8 24 -37 40
-65 l28 -52 48 33 c80 56 82 64 34 138 l-40 63 -32 -30 c-18 -16 -41 -35 -52
-42 -11 -8 -1 3 23 23 23 21 42 44 42 52 0 14 -96 84 -116 84 -6 0 -21 -12
-35 -26z"/>
<path d="M778 2167 c-9 -12 -27 -45 -41 -74 l-27 -51 45 -61 c44 -60 65 -75
65 -47 0 8 13 39 30 70 l29 57 -34 48 c-19 27 -35 53 -35 59 0 22 -18 21 -32
-1z"/>
<path d="M1232 2171 c39 -31 108 -61 143 -60 29 0 29 0 10 15 -30 24 -95 52
-140 60 l-40 7 27 -22z"/>
<path d="M1535 2106 l-30 -13 28 -8 c34 -9 149 -1 168 11 34 21 -119 30 -166
10z"/>
<path d="M1220 2088 c-34 -11 -34 -11 -10 -18 63 -19 189 -3 174 21 -7 12
-121 10 -164 -3z"/>
<path d="M1695 2085 c-22 -8 -56 -14 -75 -15 -31 0 -33 -2 -15 -12 11 -6 44
-27 73 -46 l53 -35 67 14 c44 9 67 19 67 28 0 12 -111 83 -125 80 -3 -1 -23
-7 -45 -14z"/>
<path d="M1120 2042 c-25 -16 -53 -38 -64 -50 -18 -21 -18 -21 10 -29 16 -4
52 -8 81 -8 44 0 57 4 85 31 18 17 43 38 56 46 21 15 20 15 -36 21 -32 4 -65
9 -73 12 -8 3 -35 -8 -59 -23z"/>
<path d="M1525 2050 c10 -11 41 -28 69 -39 28 -11 43 -20 33 -20 -10 -1 -27 4
-38 9 -20 11 -28 -3 -9 -15 6 -4 24 -31 41 -60 25 -45 37 -56 76 -69 49 -17
103 -21 103 -8 0 13 -41 76 -68 105 -16 17 -37 28 -56 28 -26 1 -27 3 -7 6 22
5 22 5 -11 28 -43 29 -104 55 -131 55 -19 0 -19 -1 -2 -20z"/>
<path d="M1495 2029 c8 -25 88 -114 118 -131 17 -9 17 -7 6 14 -20 39 -69 97
-101 119 l-30 22 7 -24z"/>
<path d="M1371 2005 c-35 -40 -75 -114 -67 -122 8 -9 32 14 70 66 60 82 58
125 -3 56z"/>
<path d="M656 1866 c14 -55 43 -129 43 -111 1 36 -41 165 -54 165 -1 0 3 -24
11 -54z"/>
<path d="M2143 1663 c-16 -21 -38 -54 -47 -73 l-17 -35 30 35 c29 34 76 110
68 110 -2 0 -17 -17 -34 -37z"/>
<path d="M2075 1600 c-3 -6 -30 -23 -60 -38 -39 -20 -63 -42 -91 -82 -20 -30
-37 -61 -37 -67 0 -7 -5 -13 -11 -13 -12 -1 -94 -60 -82 -60 11 0 98 47 131
71 20 14 23 19 10 15 -19 -5 -19 -5 -1 7 63 41 104 78 130 120 16 26 27 50 24
53 -4 3 -9 0 -13 -6z"/>
<path d="M801 1583 c5 -12 74 -88 109 -118 14 -12 9 -2 -13 28 -36 48 -104
111 -96 90z"/>
<path d="M2655 2553 c-89 -47 -129 -126 -129 -258 0 -97 12 -134 63 -188 56
-61 91 -71 259 -75 l152 -4 0 190 0 189 -29 39 c-35 49 -86 93 -128 111 -44
18 -151 16 -188 -4z"/>
<path d="M4131 2279 c-75 -38 -101 -114 -63 -188 24 -49 82 -76 157 -75 76 1
122 21 184 79 59 55 73 86 69 151 l-3 49 -150 3 c-137 2 -154 0 -194 -19z"/>
<path d="M1420 1583 l-55 -55 45 -39 c71 -62 86 -62 142 1 l48 53 -38 25 c-20
14 -48 35 -62 47 l-25 23 -55 -55z"/>
<path d="M4080 1500 c0 -39 1 -40 34 -40 39 0 60 20 51 48 -5 19 -32 32 -67
32 -14 0 -18 -9 -18 -40z"/>
<path d="M5040 1495 c0 -45 0 -45 35 -45 33 0 55 20 55 49 0 19 -32 41 -61 41
-28 0 -29 -2 -29 -45z"/>
<path d="M5408 1480 l-16 -50 33 0 33 0 -14 47 c-8 25 -15 48 -17 50 -2 1 -10
-20 -19 -47z"/>
<path d="M5919 1521 c-20 -16 -24 -28 -23 -72 0 -42 5 -56 23 -71 32 -25 56
-23 80 8 40 50 13 154 -39 154 -10 0 -28 -9 -41 -19z"/>
<path d="M6130 1500 c0 -39 1 -40 35 -40 25 0 37 6 46 22 10 18 8 24 -11 40
-12 10 -33 18 -46 18 -21 0 -24 -4 -24 -40z"/>
</g>
</svg>
